<svg xmlns="http://www.w3.org/2000/svg" width="451.16" height="430.159" viewBox="0 0 451.16 430.159">
  <g id="Group_5" data-name="Group 5" transform="translate(1)">
    <g id="Layer_2" data-name="Layer 2" transform="translate(135.079 292.424)">
      <g id="Layer_1" data-name="Layer 1" transform="translate(0 0)">
        <path id="Path_356" data-name="Path 356" d="M2209.757,1440.5l-.007,4.8,9.927-10.142h27.366V1418.77h-3.924" transform="translate(-2209.75 -1396.877)" fill="none" stroke="#2e2e2e" stroke-linecap="round" stroke-linejoin="round" stroke-width="2"/>
        <path id="Path_357" data-name="Path 357" d="M2234.846,1418.77H2210.12V1432.4" transform="translate(-2210.105 -1396.877)" fill="none" stroke="#2e2e2e" stroke-linecap="round" stroke-linejoin="round" stroke-width="2"/>
        <path id="Path_358" data-name="Path 358" d="M2317.36,1541.73h27.06" transform="translate(-2313.016 -1514.874)" fill="none" stroke="#2e2e2e" stroke-linecap="round" stroke-linejoin="round" stroke-width="2"/>
        <path id="Path_359" data-name="Path 359" d="M2317.36,1700.14h9.447" transform="translate(-2313.016 -1666.889)" fill="none" stroke="#2e2e2e" stroke-linecap="round" stroke-linejoin="round" stroke-width="2"/>
        <path id="Path_360" data-name="Path 360" d="M3401.223,876.46h5.155v16.387l.015,10.142-9.926-10.142H3369.1v-2.2" transform="translate(-3322.298 -876.46)" fill="none" stroke="#2e2e2e" stroke-linecap="round" stroke-linejoin="round" stroke-width="2"/>
        <path id="Path_361" data-name="Path 361" d="M3369.1,884.31V876.46h20.634" transform="translate(-3322.298 -876.46)" fill="none" stroke="#2e2e2e" stroke-linecap="round" stroke-linejoin="round" stroke-width="2"/>
        <path id="Path_362" data-name="Path 362" d="M3542.059,999.42H3515" transform="translate(-3462.308 -994.456)" fill="none" stroke="#2e2e2e" stroke-linecap="round" stroke-linejoin="round" stroke-width="2"/>
        <path id="Path_363" data-name="Path 363" d="M3528.686,1157.83h-9.446" transform="translate(-3466.377 -1146.471)" fill="none" stroke="#2e2e2e" stroke-linecap="round" stroke-linejoin="round" stroke-width="2"/>
      </g>
    </g>
    <g id="Layer_2-2" data-name="Layer 2" transform="translate(19.118 232.081)">
      <g id="Layer_1-2" data-name="Layer 1" transform="translate(0 0)">
        <path id="Path_407" data-name="Path 407" d="M3029,3821.248l11.693,13.44,21.465-21.5-19.35,4.11-4.425-4.718" transform="translate(-2888.702 -3657.088)" fill="#fff" fill-rule="evenodd"/>
        <path id="Path_408" data-name="Path 408" d="M1673.943,4143l-1.389,11.711-2.654,6.792,27.558,8.728-13.074-14.4,3.177-9.3" transform="translate(-1592.762 -3972.153)" fill="#fff" fill-rule="evenodd"/>
        <path id="Path_409" data-name="Path 409" d="M1434.46,1806.22c1.179-.494,10.047-3.671,11.2-3.926s1.688-3.114,3.975-3.284" transform="translate(-1368.263 -1737.092)" fill="none" stroke="#000" stroke-linecap="round" stroke-linejoin="round" stroke-width="2"/>
        <path id="Path_410" data-name="Path 410" d="M2.461,0l2.27.395L5.2,28.3,0,28.664Z" transform="matrix(0.891, 0.454, -0.454, 0.891, 91.135, 47.221)" fill="#1f1f1f" fill-rule="evenodd"/>
        <path id="Path_416" data-name="Path 416" d="M242.743,3118H303.25a.553.553,0,0,1,.553.554v64.839a.553.553,0,0,1-.553.554H242.743a.553.553,0,0,1-.553-.554v-64.839A.554.554,0,0,1,242.743,3118Z" transform="translate(-231.4 -2994.786)" fill="#1f1f1f" fill-rule="evenodd"/>
        <path id="Path_417" data-name="Path 417" d="M3206.051,3792.03l12.083-12.1-19.35,4.11-4.424-4.717" transform="translate(-3046.377 -3625.374)" fill="none" stroke="#000" stroke-linecap="round" stroke-linejoin="round" stroke-width="2"/>
        <path id="Path_418" data-name="Path 418" d="M2992.43,3965.83l11.694,13.438,5.8-5.806" transform="translate(-2853.831 -3803.216)" fill="none" stroke="#000" stroke-linecap="round" stroke-linejoin="round" stroke-width="2"/>
        <path id="Path_419" data-name="Path 419" d="M2292.183,3027.066c3.637,2.314,30.16,21.068,31.735,22.33,2.008-1.707,7.757-7.021,9.473-8.866-1.576-2.128-32.4-37.024-34.2-38.027S2288.544,3024.752,2292.183,3027.066Z" transform="translate(-2185.298 -2884.627)" fill="#3c3744" fill-rule="evenodd"/>
        <path id="Path_420" data-name="Path 420" d="M2914.72,3725.084l12.659-11.683" transform="translate(-2779.733 -3562.517)" fill="none" stroke="#000" stroke-linecap="round" stroke-linejoin="round" stroke-width="2"/>
        <path id="Path_421" data-name="Path 421" d="M2945.92,3761.929l12.923-11.769" transform="translate(-2809.483 -3597.569)" fill="none" stroke="#000" stroke-linecap="round" stroke-linejoin="round" stroke-width="2"/>
        <path id="Path_422" data-name="Path 422" d="M2249.195,2945.036c3.638,2.314,30.16,21.069,31.734,22.331,2.008-1.707,7.757-7.021,9.474-8.866-1.576-2.128-32.406-37.024-34.2-38.027S2245.558,2942.722,2249.195,2945.036Z" transform="translate(-2144.308 -2806.409)" fill="none" stroke="#000" stroke-linecap="round" stroke-linejoin="round" stroke-width="2"/>
        <path id="Path_423" data-name="Path 423" d="M1694,4081.68l16.488,4.673" transform="translate(-1615.742 -3913.682)" fill="none" stroke="#000" stroke-linecap="round" stroke-linejoin="round" stroke-width="2"/>
        <path id="Path_424" data-name="Path 424" d="M1707.6,4024.67l16.9,4.491" transform="translate(-1628.71 -3859.322)" fill="none" stroke="#000" stroke-linecap="round" stroke-linejoin="round" stroke-width="2"/>
        <path id="Path_425" data-name="Path 425" d="M1962.078,4189.224l-3.778-4.159,3.177-9.306" transform="translate(-1867.759 -4003.39)" fill="none" stroke="#000" stroke-linecap="round" stroke-linejoin="round" stroke-width="2"/>
        <path id="Path_426" data-name="Path 426" d="M1650.644,4099.71l-1.389,11.716-2.654,6.79,27.558,8.729-6.023-6.634" transform="translate(-1570.544 -3930.874)" fill="none" stroke="#000" stroke-linecap="round" stroke-linejoin="round" stroke-width="2"/>
        <path id="Path_427" data-name="Path 427" d="M624.758,2580.2c-5.536,31.026,49.8,30.5,57.219,30.151-.177,4.15-4.082,30.69-3.983,34.384,3.258.709,11.644,3.008,13.777,3.671,1.626-3.054,20.9-44.916,19.028-56.635-.706-4.428-48.315-17.368-52.206-17.264S625.047,2578.586,624.758,2580.2Z" transform="translate(-595.819 -2476.549)" fill="#3c3744" fill-rule="evenodd"/>
        <path id="Path_428" data-name="Path 428" d="M1738.517,2731.224c-.485,4.02-.818,7.2-.79,8.318,3.258.709,11.644,3.009,13.777,3.671,1.626-3.054,20.9-44.915,19.028-56.635-.347-2.176-12.024-6.409-24.272-10.138" transform="translate(-1657.435 -2573.746)" fill="none" stroke="#000" stroke-linecap="round" stroke-linejoin="round" stroke-width="2"/>
        <path id="Path_429" data-name="Path 429" d="M636.842,2527.513c-9.28-2.595-17.251-4.486-18.748-4.446-3.891.1-33.547,4.079-33.836,5.693-5.536,31.025,49.8,30.5,57.219,30.15-.081,1.9-.942,8.484-1.843,15.425" transform="translate(-557.201 -2427.5)" fill="none" stroke="#000" stroke-linecap="round" stroke-linejoin="round" stroke-width="2"/>
        <path id="Path_430" data-name="Path 430" d="M104.547,494.043c.174-4.2-5.469-10.043-13.46-10.043-16.2,0-19.335,16.621-31.748,39.218-3.446,6.274-21.019,19.7-21.019,36.054S51.275,579.634,63.5,579.634s38.9-24.816,38.9-31.821-4.611-16.656-4.611-26.5,1.358-15.4,1.358-17.994S104.465,501.652,104.547,494.043Z" transform="translate(-37.004 -483.192)" fill="#303030" fill-rule="evenodd"/>
        <path id="Path_431" data-name="Path 431" d="M27.841,510.046C21.652,517.2,10,528.577,10,541.892c0,16.351,12.954,20.362,25.179,20.362s38.9-24.816,38.9-31.821-4.612-16.655-4.612-26.5,1.358-15.4,1.358-17.994,5.319-1.666,5.4-9.274c.174-4.2-5.468-10.044-13.46-10.044-12.608,0-17.3,10.072-24.621,25.2" transform="translate(-10 -466.62)" fill="none" stroke="#000" stroke-linecap="round" stroke-linejoin="round" stroke-width="2"/>
        <path id="Path_432" data-name="Path 432" d="M1304.174,1392.4c5.688-1.316,10.1,14.436,9.341,17.4-2.072.756-4.571.855-5.031.132S1300.763,1393.193,1304.174,1392.4Z" transform="translate(-1243.166 -1349.306)" fill="#1b1c1e" fill-rule="evenodd"/>
        <path id="Path_433" data-name="Path 433" d="M1271.615,1363.134c5.689-1.315,10.1,14.437,9.341,17.4-2.072.756-4.571.855-5.031.132S1268.2,1363.922,1271.615,1363.134Z" transform="translate(-1212.12 -1321.397)" fill="none" stroke="#000" stroke-linecap="round" stroke-linejoin="round" stroke-width="2"/>
        <path id="Path_434" data-name="Path 434" d="M611.628,1283.5c24.891,0,16.707,55.1,12.547,59.6s-33.551,9.888-36.143,7.434S587.964,1283.429,611.628,1283.5Z" transform="translate(-560.394 -1245.537)" fill="#1b1c1e" fill-rule="evenodd"/>
        <path id="Path_435" data-name="Path 435" d="M585,2290.214c-9.493,2.214-20.328,3.491-21.856,2.044-.895-.847-1.18-9.113-.2-19.568" transform="translate(-536.663 -2188.759)" fill="none" stroke="#000" stroke-linecap="round" stroke-linejoin="round" stroke-width="2"/>
        <path id="Path_436" data-name="Path 436" d="M1245.223,1786.32c1.208,15.252-2.194,32.316-4.431,34.737-.9.971-2.968,1.983-5.692,2.949" transform="translate(-1178.168 -1724.991)" fill="none" stroke="#000" stroke-linecap="round" stroke-linejoin="round" stroke-width="2"/>
        <path id="Path_437" data-name="Path 437" d="M592,1292.189c2.582-18.846,9.191-40.95,23.033-40.91,9.592,0,14.273,8.185,16.165,18.5" transform="translate(-564.953 -1214.814)" fill="none" stroke="#000" stroke-linecap="round" stroke-linejoin="round" stroke-width="2"/>
        <path id="Path_438" data-name="Path 438" d="M783.5,1827.632c.78,2.18,8.559,23.052,12.2,24.537,7.272,2.961,31.452-19.314,34.071-20.41,2.935-1.184,2.561-.02,5.093-.02s4.815-2.944,4.815-5.025-2.506-5.234-4.694-5.234-6.7,4.276-8.389,5.007-21.156,10.345-22.15,10.611A121.457,121.457,0,0,0,800,1823.3C798.609,1820.088,782.72,1825.452,783.5,1827.632Z" transform="translate(-747.528 -1758.518)" fill="#fff" fill-rule="evenodd"/>
        <path id="Path_439" data-name="Path 439" d="M792.447,1825.165c-5.344,2.572-19.383,9.48-20.224,9.7a121.506,121.506,0,0,0-4.443-13.794c-1.392-3.216-17.281,2.15-16.5,4.33s8.559,23.052,12.2,24.537c1.534.625,3.817.127,6.494-1.057" transform="translate(-716.804 -1757.174)" fill="none" stroke="#000" stroke-linecap="round" stroke-linejoin="round" stroke-width="2"/>
        <path id="Path_440" data-name="Path 440" d="M1314.73,1827.7c8.906-5.895,18.515-14.433,20.112-15.1,2.935-1.184,2.44-.535,4.043.02,2.531,0,5.863-2.984,5.863-5.065s-2.506-5.234-4.693-5.234c-1.287,0-3.376,1.479-5.223,2.846" transform="translate(-1254.097 -1740.248)" fill="none" stroke="#000" stroke-linecap="round" stroke-linejoin="round" stroke-width="2"/>
        <path id="Path_441" data-name="Path 441" d="M700.762,1379.185c8.405-3.594,18.078,19.347,16.492,22.941s-16.809,7.4-19.135,5.6S692.937,1382.531,700.762,1379.185Z" transform="translate(-663.771 -1336.413)" fill="#1b1c1e" fill-rule="evenodd"/>
        <path id="Path_442" data-name="Path 442" d="M713.347,1876.081c-4.98,2.6-14.381,4.524-16.167,3.143-.6-.465-1.241-2.381-1.719-5.023" transform="translate(-663.606 -1808.788)" fill="none" stroke="#000" stroke-linecap="round" stroke-linejoin="round" stroke-width="2"/>
        <path id="Path_443" data-name="Path 443" d="M682.72,1370.931c.46-4.967,1.886-9.363,4.954-10.675,6.638-2.839,14.067,10.874,16.115,18.536" transform="translate(-651.458 -1318.363)" fill="none" stroke="#000" stroke-linecap="round" stroke-linejoin="round" stroke-width="2"/>
        <path id="Path_444" data-name="Path 444" d="M1044.924,1036.505c.3,2.266.211,11.115-.544,14.106,1.118,1.178,6.434,2.51,9.515,1.359a40.563,40.563,0,0,1,.484-8.639C1054.8,1041.61,1044.622,1034.24,1044.924,1036.505Z" transform="translate(-996.311 -1009.613)" fill="#fff" fill-rule="evenodd"/>
        <path id="Path_445" data-name="Path 445" d="M1034.025,1025.884a40.607,40.607,0,0,1,.483-8.639c.422-1.722-9.756-9.092-9.454-6.827s.211,11.116-.544,14.106a9.11,9.11,0,0,0,4.359,1.609" transform="translate(-977.364 -984.739)" fill="none" stroke="#000" stroke-linecap="round" stroke-linejoin="round" stroke-width="2"/>
        <path id="Path_446" data-name="Path 446" d="M1002.926,618.238c-.924-7.792,2.819-14.608,8.361-15.223s10.781,5.2,11.706,13-2.819,14.608-8.36,15.223S1003.849,626.03,1002.926,618.238Z" transform="translate(-956.649 -596.634)" fill="#fff" fill-rule="evenodd"/>
        <path id="Path_447" data-name="Path 447" d="M998.906,594.5c-.611,5.847-3.917,10.4-8.4,10.9-5.541.615-10.781-5.2-11.706-13s2.82-14.608,8.361-15.223c5.368-.6,10.456,4.849,11.607,12.276" transform="translate(-933.645 -571.995)" fill="none" stroke="#000" stroke-linecap="round" stroke-linejoin="round" stroke-width="2"/>
        <path id="Path_448" data-name="Path 448" d="M908.527,561.792c-1.074,0-3.881-.965-4.626-3.355-.812,2.259-7.214,9.735-11.2,11.051.329,1.513.614,6.951-3.4,9.8s-7.039-15.589-5.13-18.856,10.02-9.626,12.387-9.6S908.922,550.895,908.527,561.792Z" transform="translate(-842.985 -546.915)" fill="#1f1f1f" fill-rule="evenodd"/>
        <path id="Path_449" data-name="Path 449" d="M1043.128,840.4c-1.952,1.911-4.083,3.582-5.779,4.141a11.363,11.363,0,0,1-1.219,7.435" transform="translate(-988.444 -823.03)" fill="none" stroke="#000" stroke-linecap="round" stroke-linejoin="round" stroke-width="2"/>
        <path id="Path_450" data-name="Path 450" d="M1260.5,695.074c-1.074,0-3.881-.965-4.626-3.354a15.4,15.4,0,0,1-2.319,3.5" transform="translate(-1195.76 -681.259)" fill="none" stroke="#000" stroke-linecap="round" stroke-linejoin="round" stroke-width="2"/>
        <path id="Path_451" data-name="Path 451" d="M1006.42,917.648a2.528,2.528,0,1,1,2.528,2.528,2.528,2.528,0,0,1-2.528-2.528Z" transform="translate(-960.115 -894.277)" fill="#fff" fill-rule="evenodd"/>
        <path id="Path_452" data-name="Path 452" d="M993.744,904.455a2.528,2.528,0,1,1,1.123-4.794" transform="translate(-945.618 -879.287)" fill="none" stroke="#000" stroke-linecap="round" stroke-linejoin="round" stroke-width="2"/>
        <path id="Path_453" data-name="Path 453" d="M1313.35,942.55a6.644,6.644,0,0,0,1.462,3.729" transform="translate(-1252.781 -920.433)" fill="none" stroke="#000" stroke-linecap="round" stroke-linejoin="round" stroke-width="2"/>
        <path id="Path_454" data-name="Path 454" d="M1226.93,870.926c0-.7.316-1.266.7-1.266s.7.567.7,1.266-.315,1.266-.7,1.266S1226.93,871.625,1226.93,870.926Z" transform="translate(-1170.377 -850.93)" fill-rule="evenodd"/>
        <path id="Path_455" data-name="Path 455" d="M1205.29,1044.13a2.639,2.639,0,0,0,2.391,1.751" transform="translate(-1149.743 -1017.292)" fill="none" stroke="#000" stroke-linecap="round" stroke-linejoin="round" stroke-width="2"/>
      </g>
    </g>
    <g id="Layer_2-3" data-name="Layer 2" transform="translate(142.547 68.635)">
      <g id="Layer_1-3" data-name="Layer 1" transform="translate(0 0)">
        <path id="Path_472" data-name="Path 472" d="M.323,0H125.011c.179,0,.323.229.323.512V197.544c0,.283-.145.512-.323.512H.323c-.179,0-.323-.229-.323-.512V.512C0,.229.145,0,.323,0Z" transform="translate(0 15.872)" fill="none" stroke="#2e2e2e" stroke-width="2" fill-rule="evenodd"/>
        <path id="Path_516" data-name="Path 516" d="M323.4,1813.113a8.954,8.954,0,1,1,8.954,8.954A8.954,8.954,0,0,1,323.4,1813.113Z" transform="translate(-312.592 -1774.812)" fill="#1b1c1e" stroke="#1b1c1e" stroke-width="2" fill-rule="evenodd"/>
        <path id="Path_517" data-name="Path 517" d="M871.17,1905.7h76.01" transform="translate(-834.907 -1871.633)" fill="#1b1c1e" stroke="#1b1c1e" stroke-linecap="round" stroke-linejoin="round" stroke-width="2"/>
        <path id="Path_518" data-name="Path 518" d="M871.17,2088H908.1" transform="translate(-834.907 -2045.462)" fill="#1b1c1e" stroke="#1b1c1e" stroke-linecap="round" stroke-linejoin="round" stroke-width="2"/>
        <path id="Path_519" data-name="Path 519" d="M323.4,2412.354a8.954,8.954,0,1,1,8.954,8.954A8.954,8.954,0,0,1,323.4,2412.354Z" transform="translate(-312.592 -2346.204)" fill="#1b1c1e" stroke="#1b1c1e" stroke-width="2" fill-rule="evenodd"/>
        <path id="Path_520" data-name="Path 520" d="M871.17,2504.93h76.01" transform="translate(-834.907 -2443.016)" fill="#1b1c1e" stroke="#1b1c1e" stroke-linecap="round" stroke-linejoin="round" stroke-width="2"/>
        <path id="Path_521" data-name="Path 521" d="M871.17,2687.2H908.1" transform="translate(-834.907 -2616.816)" fill="#1b1c1e" stroke="#1b1c1e" stroke-linecap="round" stroke-linejoin="round" stroke-width="2"/>
        <path id="Path_522" data-name="Path 522" d="M323.4,3011.574a8.954,8.954,0,1,1,8.954,8.956A8.954,8.954,0,0,1,323.4,3011.574Z" transform="translate(-312.592 -2917.578)" fill="#1b1c1e" stroke="#1b1c1e" stroke-width="2" fill-rule="evenodd"/>
        <path id="Path_523" data-name="Path 523" d="M871.17,3104.17h76.01" transform="translate(-834.907 -3014.408)" fill="#1b1c1e" stroke="#1b1c1e" stroke-linecap="round" stroke-linejoin="round" stroke-width="2"/>
        <path id="Path_524" data-name="Path 524" d="M871.17,3286.44H908.1" transform="translate(-834.907 -3188.208)" fill="#1b1c1e" stroke="#1b1c1e" stroke-linecap="round" stroke-linejoin="round" stroke-width="2"/>
        <path id="Path_525" data-name="Path 525" d="M323.4,3610.824a8.954,8.954,0,1,1,8.954,8.954A8.953,8.953,0,0,1,323.4,3610.824Z" transform="translate(-312.592 -3488.98)" fill="#1b1c1e" stroke="#1b1c1e" stroke-width="2" fill-rule="evenodd"/>
        <path id="Path_526" data-name="Path 526" d="M871.17,3703.4h76.01" transform="translate(-834.907 -3585.791)" fill="#1b1c1e" stroke="#1b1c1e" stroke-linecap="round" stroke-linejoin="round" stroke-width="2"/>
        <path id="Path_527" data-name="Path 527" d="M871.17,3885.67H908.1" transform="translate(-834.907 -3759.591)" fill="#1b1c1e" stroke="#1b1c1e" stroke-linecap="round" stroke-linejoin="round" stroke-width="2"/>
        <path id="Path_543" data-name="Path 543" d="M.323,0H125.011a.737.737,0,0,1,.323.037v14.22a.737.737,0,0,1-.323.037H.323A.737.737,0,0,1,0,14.258V.037A.737.737,0,0,1,.323,0Z" fill="none" stroke="#2b2b2b" stroke-width="2" fill-rule="evenodd"/>
        <path id="Path_544" data-name="Path 544" d="M149.81,76.1a3.728,3.728,0,1,1,3.727,3.787A3.757,3.757,0,0,1,149.81,76.1Z" transform="translate(-142.848 -68.95)" fill="#1b1c1e" fill-rule="evenodd"/>
        <path id="Path_545" data-name="Path 545" d="M461.3,76.1a3.728,3.728,0,1,1,3.728,3.787A3.757,3.757,0,0,1,461.3,76.1Z" transform="translate(-439.863 -68.95)" fill="#1b1c1e" fill-rule="evenodd"/>
        <path id="Path_546" data-name="Path 546" d="M772.79,76.1a3.728,3.728,0,1,1,3.728,3.787A3.757,3.757,0,0,1,772.79,76.1Z" transform="translate(-736.877 -68.95)" fill="#1b1c1e" fill-rule="evenodd"/>
      </g>
    </g>
    <g id="Layer_2-4" data-name="Layer 2" transform="translate(33.144 60.122)">
      <g id="Layer_1-4" data-name="Layer 1" transform="translate(0 0)">
        <g id="Vector" transform="translate(0)">
          <path id="Path_549" data-name="Path 549" d="M792.09,2704.6c1.166-1.077,5.259-4.833,6.106-5.216s10.67,10.575,9.7,11.359-6.1,5.513-8.036,6.715A36.617,36.617,0,0,1,792.09,2704.6Z" transform="translate(-783.171 -2644.326)" fill="#fff" fill-rule="evenodd"/>
          <path id="Path_550" data-name="Path 550" d="M778.8,2676.141c1.166-1.077,5.114-4.719,5.962-5.1s10.742,11.386,9.772,12.17-6.12,5.81-7.641,6.774" transform="translate(-770.273 -2616.816)" fill="none" stroke="#000" stroke-linecap="round" stroke-linejoin="round" stroke-width="2"/>
          <path id="Path_551" data-name="Path 551" d="M966.488,2339.36c5.629,8.561-8.195,19.3-10.311,19.921s-11.227-11.865-10.567-13.509S959.691,2329.022,966.488,2339.36Z" transform="translate(-932.123 -2291.459)" fill="#2b2b2b" fill-rule="evenodd"/>
          <path id="Path_552" data-name="Path 552" d="M927.635,2306.335c4.469-3.1,10.031-4.889,13.682.664,5.629,8.56-8.195,19.3-10.311,19.921s-11.227-11.866-10.567-13.508a11.367,11.367,0,0,1,1.678-2.186" transform="translate(-907.695 -2260.055)" fill="none" stroke="#000" stroke-linecap="round" stroke-linejoin="round" stroke-width="2"/>
          <path id="Path_553" data-name="Path 553" d="M1284.991,2211.511c-6.34-.038-12.578,1.182-15.652,3.57-4.993,3.88-8.314,27.862-6.882,35a41.468,41.468,0,0,0,44.414,2.894c1.047-8.911-1.534-34.386-5.617-37.485C1297.772,2212.846,1291.331,2211.549,1284.991,2211.511Z" transform="translate(-1239.316 -2170.871)" fill="#2b2b2b" fill-rule="evenodd"/>
          <path id="Path_554" data-name="Path 554" d="M1315.32,2194.768c1.2-5.273,2.81-9.671,4.715-11.151,6.149-4.777,24.953-4.879,31.915.406,4.331,3.289,7.165,31.814,5.387,38.928" transform="translate(-1290.943 -2140.336)" fill="none" stroke="#000" stroke-linecap="round" stroke-linejoin="round" stroke-width="2"/>
          <path id="Path_555" data-name="Path 555" d="M1234.963,3220.219a42.119,42.119,0,0,1-.088-8.2" transform="translate(-1212.731 -3141.822)" fill="none" stroke="#000" stroke-linecap="round" stroke-linejoin="round" stroke-width="2"/>
          <path id="Path_559" data-name="Path 559" d="M2685.579,2845.324c-.883-.883-6.972-9.188-7.658-9.97s12.332-11.577,13.133-10.633,4.01,5.436,5.507,7.906C2695.358,2834.794,2688.707,2843.188,2685.579,2845.324Z" transform="translate(-2613.262 -2765.909)" fill="#fff" fill-rule="evenodd"/>
          <path id="Path_560" data-name="Path 560" d="M2683.563,2793.144c-.738-1.007-7.338-10.1-8.024-10.88s12.333-11.577,13.133-10.633a76.5,76.5,0,0,1,5.955,8.76" transform="translate(-2610.95 -2714.387)" fill="none" stroke="#000" stroke-linecap="round" stroke-linejoin="round" stroke-width="2"/>
          <path id="Path_561" data-name="Path 561" d="M2342.647,2276.254c6.573-4.51,22.44,10.981,22.4,15.6s-14.147,13.009-16.5,11.8C2345.96,2302.317,2332.559,2283.172,2342.647,2276.254Z" transform="translate(-2284.319 -2232.913)" fill="#2b2b2b" fill-rule="evenodd"/>
          <path id="Path_562" data-name="Path 562" d="M2318.335,2258.72c-.886-4.294-.317-8.413,3.343-10.923,6.575-4.509,22.44,10.982,22.4,15.6s-14.146,13.009-16.5,11.8c-.752-.388-2.415-2.277-4.15-4.932" transform="translate(-2263.969 -2205.296)" fill="none" stroke="#000" stroke-linecap="round" stroke-linejoin="round" stroke-width="2"/>
          <path id="Path_563" data-name="Path 563" d="M699,1023.24a41.45,41.45,0,1,1,41.45,41.45A41.45,41.45,0,0,1,699,1023.24Z" transform="translate(-692.831 -977.481)" fill="none" stroke="#000" stroke-linecap="round" stroke-linejoin="round" stroke-width="2"/>
          <path id="Path_564" data-name="Path 564" d="M3307.982,2574.489c.041-1.191,2.361-1.674,5.183-1.079s5.077,2.042,5.036,3.232-2.361,1.674-5.184,1.079S3307.94,2575.68,3307.982,2574.489Z" transform="translate(-3224.734 -2521.832)" fill="#fff" fill-rule="evenodd"/>
          <path id="Path_565" data-name="Path 565" d="M3336.314,2420.3c.04-1.191,2.361-1.674,5.183-1.079s5.077,2.042,5.036,3.233-2.361,1.674-5.183,1.079S3336.274,2421.492,3336.314,2420.3Z" transform="translate(-3252.229 -2372.2)" fill="#fff" fill-rule="evenodd"/>
          <path id="Path_566" data-name="Path 566" d="M3332.652,2260.955c.041-1.19,2.361-1.673,5.184-1.079s5.077,2.042,5.036,3.233-2.362,1.674-5.184,1.079S3332.611,2262.146,3332.652,2260.955Z" transform="translate(-3248.675 -2217.562)" fill="#fff" fill-rule="evenodd"/>
          <path id="Path_567" data-name="Path 567" d="M3371.93,2242.892a9.469,9.469,0,0,1,3.526.151c2.822.595,5.077,2.042,5.036,3.233-.027.8-1.095,1.285-2.654,1.33" transform="translate(-3286.793 -2201.226)" fill="none" stroke="#000" stroke-linecap="round" stroke-linejoin="round" stroke-width="2"/>
          <path id="Path_568" data-name="Path 568" d="M3348.39,2402.471a7.8,7.8,0,0,1,4.33-.083c2.822.594,5.077,2.042,5.036,3.232-.029.868-1.27,1.359-3.036,1.333" transform="translate(-3263.948 -2355.863)" fill="none" stroke="#000" stroke-linecap="round" stroke-linejoin="round" stroke-width="2"/>
          <path id="Path_569" data-name="Path 569" d="M3368,2556.347a10.445,10.445,0,0,1,2.912.231c2.822.595,5.077,2.042,5.036,3.233-.025.744-.942,1.211-2.314,1.313" transform="translate(-3282.979 -2505.497)" fill="none" stroke="#000" stroke-linecap="round" stroke-linejoin="round" stroke-width="2"/>
          <path id="Path_570" data-name="Path 570" d="M516.882,2319.459c.041-1.191,2.362-1.674,5.184-1.079s5.077,2.042,5.036,3.233-2.361,1.674-5.184,1.079S516.841,2320.649,516.882,2319.459Z" transform="translate(-516.093 -2274.336)" fill="#fff" fill-rule="evenodd"/>
          <path id="Path_571" data-name="Path 571" d="M545.242,2165.269c.041-1.191,2.362-1.674,5.184-1.079s5.077,2.042,5.036,3.233-2.361,1.674-5.183,1.079S545.2,2166.46,545.242,2165.269Z" transform="translate(-543.615 -2124.702)" fill="#fff" fill-rule="evenodd"/>
          <path id="Path_572" data-name="Path 572" d="M541.582,2005.919c.041-1.191,2.362-1.674,5.184-1.079s5.077,2.042,5.036,3.233-2.361,1.674-5.183,1.079S541.542,2007.109,541.582,2005.919Z" transform="translate(-540.064 -1970.059)" fill="#fff" fill-rule="evenodd"/>
          <path id="Path_573" data-name="Path 573" d="M516.265,1985.132c-.869-.573-1.392-1.214-1.373-1.793.041-1.191,2.362-1.674,5.184-1.079a11.476,11.476,0,0,1,3.3,1.211" transform="translate(-514.162 -1948.147)" fill="none" stroke="#000" stroke-linecap="round" stroke-linejoin="round" stroke-width="2"/>
          <path id="Path_574" data-name="Path 574" d="M521.011,2145.076c-1.5-.693-2.487-1.6-2.459-2.391.041-1.19,2.362-1.674,5.184-1.079a11.7,11.7,0,0,1,3.107,1.107" transform="translate(-517.714 -2102.785)" fill="none" stroke="#000" stroke-linecap="round" stroke-linejoin="round" stroke-width="2"/>
          <path id="Path_575" data-name="Path 575" d="M494.274,2299.854c-2.359-.687-4.118-1.94-4.082-2.994.041-1.191,2.362-1.674,5.184-1.079a10.313,10.313,0,0,1,4.024,1.7" transform="translate(-490.192 -2252.406)" fill="none" stroke="#000" stroke-linecap="round" stroke-linejoin="round" stroke-width="2"/>
          <path id="Path_576" data-name="Path 576" d="M1925.082,1893.809a45.444,45.444,0,0,0-.558,14.355c-1.095.827-7.477,1.425-9.233,0a91.169,91.169,0,0,0-.124-9.5C1914.92,1897.279,1925.351,1892.28,1925.082,1893.809Z" transform="translate(-1873.064 -1862.277)" fill="#fff" fill-rule="evenodd"/>
          <path id="Path_577" data-name="Path 577" d="M1891.021,1878.13a91.161,91.161,0,0,0-.124-9.5c-.248-1.384,10.183-6.381,9.914-4.854a45.458,45.458,0,0,0-.558,14.355,9.491,9.491,0,0,1-3.817.815" transform="translate(-1849.511 -1833.13)" fill="none" stroke="#000" stroke-linecap="round" stroke-linejoin="round" stroke-width="2"/>
          <path id="Path_578" data-name="Path 578" d="M1543.642,1189.148c.607-7.452,6.2-13.085,12.49-12.582s10.9,6.95,10.291,14.4-6.2,13.086-12.49,12.584S1543.034,1196.6,1543.642,1189.148Z" transform="translate(-1512.467 -1166.473)" fill="#fff" fill-rule="evenodd"/>
          <path id="Path_579" data-name="Path 579" d="M1639.672,1930.579a10.2,10.2,0,0,1-6.6,1.822,10.443,10.443,0,0,1-7.337-4.071" transform="translate(-1592.192 -1896.057)" fill="none" stroke="#000" stroke-linecap="round" stroke-linejoin="round" stroke-width="2"/>
          <path id="Path_580" data-name="Path 580" d="M1524.512,1169.806a15.641,15.641,0,0,1-.509-5.477c.607-7.452,6.2-13.085,12.491-12.582s10.9,6.95,10.291,14.4a15.531,15.531,0,0,1-1.789,6.122" transform="translate(-1493.408 -1142.386)" fill="none" stroke="#000" stroke-linecap="round" stroke-linejoin="round" stroke-width="2"/>
          <path id="Path_581" data-name="Path 581" d="M1919.134,1465.729c.087-.805.453-1.426.818-1.387s.589.724.5,1.53-.453,1.426-.818,1.387S1919.047,1466.534,1919.134,1465.729Z" transform="translate(-1876.9 -1445.775)" fill="#1f1f1f" fill-rule="evenodd"/>
          <path id="Path_582" data-name="Path 582" d="M1682.808,1534.19a6.592,6.592,0,0,1-2.048,3.427" transform="translate(-1645.587 -1513.561)" fill="none" stroke="#000" stroke-linecap="round" stroke-linejoin="round" stroke-width="2"/>
          <path id="Path_583" data-name="Path 583" d="M1829.2,1753.275a1.324,1.324,0,1,1,1.324,1.324,1.324,1.324,0,0,1-1.324-1.324Z" transform="translate(-1789.641 -1724.888)" fill="none" stroke="#000" stroke-linecap="round" stroke-linejoin="round" stroke-width="2"/>
          <path id="Path_584" data-name="Path 584" d="M1569.8,901.391c-.8-.057-3.1-3.332-.74-5.584-1.155-1.126-8.343-6.877-16.509-3.721-1.061-1.079-3.567-4.754-1.067-6.624s3.544.391,3.868,1.29c-.755-2.374-.33-8.758,6.027-8.829s13.192,18.5,12.915,21.836S1574,903.543,1569.8,901.391Z" transform="translate(-1519.16 -876.683)" fill="#2b2b2b" fill-rule="evenodd"/>
          <path id="Path_585" data-name="Path 585" d="M1780.792,1170.29c2.405,4.985,3.992,10.318,3.856,11.959-.276,3.333-.29,3.783-4.494,1.631-.8-.057-3.1-3.332-.74-5.584a16.864,16.864,0,0,0-11.224-4.068" transform="translate(-1730.433 -1160.412)" fill="none" stroke="#000" stroke-linecap="round" stroke-linejoin="round" stroke-width="2"/>
          <path id="Path_586" data-name="Path 586" d="M1522.141,850.779c-1.061-1.079-3.957-5.417-1.457-7.287s3.545.391,3.868,1.291c-.755-2.374-.33-8.758,6.027-8.829,1.6-.018,3.222,1.14,4.759,2.937" transform="translate(-1489.279 -835.953)" fill="none" stroke="#000" stroke-linecap="round" stroke-linejoin="round" stroke-width="2"/>
          <path id="Path_587" data-name="Path 587" d="M2142.63,1630.162a2.912,2.912,0,1,1,2.912,2.912A2.912,2.912,0,0,1,2142.63,1630.162Z" transform="translate(-2093.811 -1603.872)" fill="#fff" fill-rule="evenodd"/>
          <path id="Path_588" data-name="Path 588" d="M2185.83,1614.158a2.912,2.912,0,1,1-.159,5.212" transform="translate(-2135.58 -1590.908)" fill="none" stroke="#000" stroke-linecap="round" stroke-linejoin="round" stroke-width="2"/>
        </g>
      </g>
    </g>
    <g id="Layer_2-5" data-name="Layer 2" transform="translate(152.117 231.794)">
      <g id="vector-2" data-name="vector" transform="translate(0)">
        <rect id="Rectangle_57" data-name="Rectangle 57" width="103.252" height="103.252" transform="translate(92.818 20.056)" fill="#fff" stroke="#1b1c1e" stroke-width="2"/>
        <rect id="Rectangle_58" data-name="Rectangle 58" width="63.987" height="16.753" rx="8.376" transform="translate(101.445 38.733)" fill="#fff" stroke="#1b1c1e" stroke-width="2"/>
        <ellipse id="Ellipse_27" data-name="Ellipse 27" cx="8.376" cy="8.376" rx="8.376" ry="8.376" transform="translate(170.691 38.728)" fill="#1b1c1e"/>
        <line id="Line_36" data-name="Line 36" x2="85.999" transform="translate(101.445 64.894)" fill="none" stroke="#2e2e2e" stroke-linecap="round" stroke-linejoin="round" stroke-width="2"/>
        <line id="Line_37" data-name="Line 37" x2="85.999" transform="translate(101.445 77.267)" fill="none" stroke="#2e2e2e" stroke-linecap="round" stroke-linejoin="round" stroke-width="2"/>
        <line id="Line_38" data-name="Line 38" x2="43.572" transform="translate(101.445 89.64)" fill="none" stroke="#2e2e2e" stroke-linecap="round" stroke-linejoin="round" stroke-width="2"/>
        <rect id="Rectangle_60" data-name="Rectangle 60" width="96.158" height="33.518" transform="translate(46.117)" fill="#fff" stroke="#2e2e2e" stroke-width="2"/>
        <line id="Line_39" data-name="Line 39" x2="63.128" transform="translate(62.632 9.901)" fill="none" stroke="#2e2e2e" stroke-linecap="round" stroke-linejoin="round" stroke-width="2"/>
        <line id="Line_40" data-name="Line 40" x2="29.449" transform="translate(62.632 23.617)" fill="none" stroke="#2e2e2e" stroke-linecap="round" stroke-linejoin="round" stroke-width="2"/>
        <path id="Path_891" data-name="Path 891" d="M242.613,114.58l-8.872,20.431,22.129-2.529Z" transform="translate(-233.74 -68.37)" fill="none" stroke="#2e2e2e" stroke-linecap="round" stroke-linejoin="round" stroke-width="2"/>
        <rect id="Rectangle_61" data-name="Rectangle 61" width="9.486" height="18.705" transform="translate(211.686 40.727) rotate(-76.4)" fill="none" stroke="#2e2e2e" stroke-linecap="round" stroke-linejoin="round" stroke-width="2"/>
        <rect id="Rectangle_62" data-name="Rectangle 62" width="55.756" height="63.345" transform="translate(183.927 93.638)" fill="#fff" stroke="#2e2e2e" stroke-width="2"/>
        <rect id="Rectangle_63" data-name="Rectangle 63" width="55.756" height="10.155" transform="translate(183.927 83.66)" fill="#fff" stroke="#1b1c1e" stroke-width="2"/>
        <ellipse id="Ellipse_32" data-name="Ellipse 32" cx="2.513" cy="2.513" rx="2.513" ry="2.513" transform="translate(187.601 86.152)" fill="#1b1c1e"/>
        <ellipse id="Ellipse_33" data-name="Ellipse 33" cx="2.513" cy="2.513" rx="2.513" ry="2.513" transform="translate(195.252 86.152)" fill="#1b1c1e"/>
        <ellipse id="Ellipse_34" data-name="Ellipse 34" cx="2.513" cy="2.513" rx="2.513" ry="2.513" transform="translate(202.906 86.152)" fill="#1b1c1e"/>
        <path id="Path_1112" data-name="Path 1112" d="M0,0H15.406V21.375H0Z" transform="translate(190.686 102.102)" fill="#2e2e2e"/>
        <line id="Line_41" data-name="Line 41" x2="20.891" transform="translate(211.436 102.102)" fill="none" stroke="#2e2e2e" stroke-linecap="round" stroke-linejoin="round" stroke-width="2"/>
        <line id="Line_42" data-name="Line 42" x2="41.64" transform="translate(190.686 135.205)" fill="none" stroke="#2e2e2e" stroke-linecap="round" stroke-linejoin="round" stroke-width="2"/>
        <line id="Line_43" data-name="Line 43" x2="41.64" transform="translate(190.686 146.239)" fill="none" stroke="#2e2e2e" stroke-linecap="round" stroke-linejoin="round" stroke-width="2"/>
        <line id="Line_44" data-name="Line 44" x2="20.891" transform="translate(211.436 113.137)" fill="none" stroke="#2e2e2e" stroke-linecap="round" stroke-linejoin="round" stroke-width="2"/>
        <line id="Line_45" data-name="Line 45" x2="20.891" transform="translate(211.436 124.171)" fill="none" stroke="#2e2e2e" stroke-linecap="round" stroke-linejoin="round" stroke-width="2"/>
      </g>
    </g>
    <g id="Layer_2-6" data-name="Layer 2" transform="translate(282.897)">
      <g id="vector-3" data-name="vector" transform="translate(0)">
        <path id="Path_1107" data-name="Path 1107" d="M0,93.476l49.6-.1L49.79,0,.19.1Z" transform="matrix(-0.519, -0.855, 0.855, -0.519, 50.583, 152.282)" fill="none" stroke="#000" stroke-width="2"/>
        <rect id="Rectangle_66" data-name="Rectangle 66" width="137.604" height="2.286" transform="translate(0.12 221.193)" fill="#3b3744"/>
        <rect id="Rectangle_67" data-name="Rectangle 67" width="29.393" height="221.193" transform="translate(0)" fill="#2e2e2e"/>
        <path id="Path_925" data-name="Path 925" d="M457.48,445.91c1.1,4.374,7.249,55.206,7.128,59.579-1.2,3.609-33.922,44.712-33.922,44.712l-6.042-7.653,21.525-44.492-3.624-49.607Z" transform="translate(-403.917 -343.855)" fill="#3b3744"/>
        <path id="Path_926" data-name="Path 926" d="M458.978,493.071c.386,3.836.614,6.559.593,7.434-1.209,3.609-33.934,44.712-33.934,44.712l-6.042-7.653,21.525-44.492L437.5,443.464l14.945-2.534c.69,2.746,3.361,23.729,5.233,40.093" transform="translate(-397.637 -340.015)" fill="none" stroke="#000" stroke-linecap="round" stroke-linejoin="round" stroke-width="2"/>
        <path id="Path_927" data-name="Path 927" d="M520.575,565.426l-4.612-98.936s-27.312,3.291-27.312,5.035,21.613,93.891,21.613,93.891Z" transform="translate(-475.294 -359.725)" fill="#3b3744"/>
        <path id="Path_928" data-name="Path 928" d="M404.679,303.613c-.483,1.545-7.971,21.937-10.271,23.8s-9.521.8-9.843.373S382,307.662,382,307.662l8.022-.531c.963,2.394,1.874,5.493,2.141,6.335.69-1.863,7.277-12.19,7.546-12.936" transform="translate(-332.903 -231.748)" fill="#fff"/>
        <path id="Path_929" data-name="Path 929" d="M30.77,714.955,8.535,737.542,0,707.08Z" transform="translate(134.56 -545.251)" fill="none" stroke="#1b1c1e" stroke-width="2"/>
        <path id="Path_930" data-name="Path 930" d="M398.58,306.852c1.952-3.509,6.509-10.7,6.732-11.322" transform="translate(-337.131 -227.892)" fill="none" stroke="#000" stroke-linecap="round" stroke-linejoin="round" stroke-width="2"/>
        <path id="Path_931" data-name="Path 931" d="M422.965,338.606c-1.361,3.074-2.587,5.459-3.306,6.049-2.3,1.863-9.843-2.38-10.165-2.806S407.25,324.9,407.25,324.9l8.022-.531c.664,1.648,1.3,3.625,1.722,4.976" transform="translate(-357.156 -250.132)" fill="none" stroke="#000" stroke-linecap="round" stroke-linejoin="round" stroke-width="2"/>
        <path id="Path_932" data-name="Path 932" d="M381.78,309c-.253.81-2.433,6.8-4.78,12.588" transform="translate(-308.29 -238.279)" fill="none" stroke="#000" stroke-linecap="round" stroke-linejoin="round" stroke-width="2"/>
        <path id="Path_933" data-name="Path 933" d="M482.65,678.845c2.2,9.425,3.7,15.792,3.7,15.792h10.324l-2.741-58.8" transform="translate(-449.227 -490.316)" fill="none" stroke="#000" stroke-linecap="round" stroke-linejoin="round" stroke-width="2"/>
        <path id="Path_934" data-name="Path 934" d="M526.056,485.874l-1.184-25.384s-27.312,3.291-27.312,5.035c0,1.1,8.521,37.857,14.86,65.047" transform="translate(-482.818 -355.098)" fill="none" stroke="#000" stroke-linecap="round" stroke-linejoin="round" stroke-width="2"/>
        <line id="Line_46" data-name="Line 46" x1="10.924" y1="13.59" transform="translate(17.661 193.61)" fill="none" stroke="#000" stroke-linecap="round" stroke-linejoin="round" stroke-width="2"/>
        <line id="Line_47" data-name="Line 47" x1="6.829" y1="8.496" transform="translate(15.727 198.036)" fill="none" stroke="#000" stroke-linecap="round" stroke-linejoin="round" stroke-width="2"/>
        <line id="Line_48" data-name="Line 48" x1="0.784" y1="0.977" transform="translate(25.525 209.697)" fill="none" stroke="#000" stroke-linecap="round" stroke-linejoin="round" stroke-width="2"/>
        <line id="Line_49" data-name="Line 49" x1="17.713" transform="translate(33.616 204.355)" fill="none" stroke="#000" stroke-linecap="round" stroke-linejoin="round" stroke-width="2"/>
        <line id="Line_50" data-name="Line 50" x1="17.713" transform="translate(33.973 208.44)" fill="none" stroke="#000" stroke-linecap="round" stroke-linejoin="round" stroke-width="2"/>
        <line id="Line_51" data-name="Line 51" x1="5.679" y2="12.389" transform="translate(23.833 118.392)" fill="none" stroke="#000" stroke-linecap="round" stroke-linejoin="round" stroke-width="2"/>
        <path id="Path_935" data-name="Path 935" d="M346.8,249.94l6.567.185,6.183-13.492-6.564-.183Z" transform="translate(-278.893 -182.334)" fill="none" stroke="#000" stroke-linecap="round" stroke-linejoin="round" stroke-width="2"/>
        <path id="Path_936" data-name="Path 936" d="M372.32,296.762c.23-.916.9-3.25,1.076-3.632" transform="translate(-298.677 -226.042)" fill="none" stroke="#000" stroke-linecap="round" stroke-linejoin="round" stroke-width="2"/>
        <path id="Path_937" data-name="Path 937" d="M450.587,269.38c1.134-.7,4.8-2.7,5.532-4.348-1.409-8.21-8.1-21.23-16.874-18.067C436.96,247.743,445.975,271.886,450.587,269.38Z" transform="translate(-398.089 -190.068)" fill="#2b2b2b"/>
        <path id="Path_938" data-name="Path 938" d="M447.955,250.745c-3.058-5.951-7.932-10.892-13.71-8.809-2.285.778,6.739,24.928,11.342,22.429,1.133-.7,4.8-2.7,5.532-4.349a29.024,29.024,0,0,0-.747-3.188" transform="translate(-391.866 -186.191)" fill="none" stroke="#000" stroke-linecap="round" stroke-linejoin="round" stroke-width="2"/>
        <path id="Path_939" data-name="Path 939" d="M469.24,241.45c-24.521,0-18.663,53.379-14.853,55.7s33.458-2.321,36.718-6.678C492.374,277.737,486.766,241.45,469.24,241.45Z" transform="translate(-437.073 -186.19)" fill="#2b2b2b"/>
        <path id="Path_940" data-name="Path 940" d="M445.914,387.453c7.6-1.421,14.715-3.49,16.214-5.493.46-4.639,0-12.4-1.593-20.39" transform="translate(-405.958 -278.818)" fill="none" stroke="#000" stroke-linecap="round" stroke-linejoin="round" stroke-width="2"/>
        <path id="Path_941" data-name="Path 941" d="M568.952,245.44c-15.7,9.841-10.749,51.6-7.387,53.642,1.32.806,5.748.774,11.1.206" transform="translate(-543.666 -189.266)" fill="none" stroke="#000" stroke-linecap="round" stroke-linejoin="round" stroke-width="2"/>
        <path id="Path_942" data-name="Path 942" d="M479.975,256.189c-3.125-9.3-8.077-17.225-15.285-18.689" transform="translate(-428.188 -183.144)" fill="none" stroke="#000" stroke-linecap="round" stroke-linejoin="round" stroke-width="2"/>
        <path id="Path_943" data-name="Path 943" d="M582.04,338.813c-.326,2.6-2.9,9.766-2.529,11.144s9.1,29.137,10.167,30.151c-.407.973-2.442,5.264-2.529,5.836-1.3-1.257-18.148-31.195-18.394-33.71s-1.048-15.806-.641-17.509S582.336,336.924,582.04,338.813Z" transform="translate(-563.409 -257.793)" fill="#fff"/>
        <path id="Path_944" data-name="Path 944" d="M581.167,424.463c1.4,4.12,2.543,7.223,2.883,7.553-.407.973-2.442,5.264-2.529,5.836-1.3-1.256-18.148-31.195-18.394-33.71-.025-.247-.055-.6-.087-1.041" transform="translate(-556.538 -310.843)" fill="none" stroke="#000" stroke-linecap="round" stroke-linejoin="round" stroke-width="2"/>
        <path id="Path_945" data-name="Path 945" d="M585.164,337.607a56.48,56.48,0,0,1-.051-7.882c.407-1.7,14.225,2.2,13.929,4.094-.326,2.6-2.9,9.766-2.529,11.144.191.719,2.646,8.569,5.109,16.08" transform="translate(-579.289 -253.937)" fill="none" stroke="#000" stroke-linecap="round" stroke-linejoin="round" stroke-width="2"/>
        <path id="Path_946" data-name="Path 946" d="M600.233,251.716c-8.765-2-15.239,15.774-14.2,20.3,2.791,2.705,13.736,5.589,16.635,4.058C604.565,272.508,606.687,253.183,600.233,251.716Z" transform="translate(-582.565 -193.986)" fill="#2b2b2b"/>
        <path id="Path_947" data-name="Path 947" d="M599.607,253.6c-.515-3.554-1.727-6.365-4.035-6.889-8.765-2-15.239,15.774-14.2,20.3,2.791,2.705,13.735,5.589,16.635,4.058.777-1.458,1.591-5.566,1.839-10.006" transform="translate(-576.682 -190.13)" fill="none" stroke="#000" stroke-linecap="round" stroke-linejoin="round" stroke-width="2"/>
        <path id="Path_948" data-name="Path 948" d="M535.71,204.5c.23,2.289,1.35,9.924,1.09,12.116,1.113.966,7.176,1.744,9.093-.378a25.916,25.916,0,0,1-.993-8.109C545,206.292,535.71,204.5,535.71,204.5Z" transform="translate(-511.263 -157.696)" fill="#fff"/>
        <path id="Path_949" data-name="Path 949" d="M531.67,253.138c1.876.041,3.835-.3,4.782-1.348" transform="translate(-500.642 -194.163)" fill="none" stroke="#000" stroke-linecap="round" stroke-linejoin="round" stroke-width="2"/>
        <path id="Path_950" data-name="Path 950" d="M544.694,207.961a28.025,28.025,0,0,1-.147-3.831c.094-1.831-9.2-3.63-9.2-3.63.23,2.289,1.35,9.924,1.09,12.116a3.714,3.714,0,0,0,1.393.59" transform="translate(-509.945 -154.612)" fill="none" stroke="#000" stroke-linecap="round" stroke-linejoin="round" stroke-width="2"/>
        <path id="Path_1108" data-name="Path 1108" d="M14.16,22.555c7.822,0,14.164-5.053,14.165-11.281S21.987,0,14.165,0,0,5.053,0,11.281,6.338,22.557,14.16,22.555Z" transform="matrix(-0.054, -0.999, 0.999, -0.054, 22.534, 52.327)" fill="#fff"/>
        <path id="Path_951" data-name="Path 951" d="M573.543,110.3a15.416,15.416,0,0,0-4.369,12.02,17.53,17.53,0,0,0,.69,4.012" transform="translate(-546.849 -85.056)" fill="none" stroke="#000" stroke-linecap="round" stroke-linejoin="round" stroke-width="2"/>
        <path id="Path_952" data-name="Path 952" d="M504.241,119.169a16.949,16.949,0,0,0,1.175-7.273c-.423-7.811-5.806-13.874-12.025-13.54a9.13,9.13,0,0,0-3.359.835" transform="translate(-459.855 -75.835)" fill="none" stroke="#000" stroke-linecap="round" stroke-linejoin="round" stroke-width="2"/>
        <path id="Path_953" data-name="Path 953" d="M503.05,207.023a9.166,9.166,0,0,0,3.571.526,10.145,10.145,0,0,0,7.535-4.289" transform="translate(-471.59 -156.74)" fill="none" stroke="#000" stroke-linecap="round" stroke-linejoin="round" stroke-width="2"/>
        <path id="Path_954" data-name="Path 954" d="M507.46,114.014c.03,1.373-2.019,6.738-3.481,7.031a25.124,25.124,0,0,0-2.973,1.057,17.533,17.533,0,0,1-.69-4.012c-.423-7.809,4.276-14.419,10.5-14.744,4.672-.249,8.87,3.108,10.85,8.1C519.05,112.794,514.487,114.279,507.46,114.014Z" transform="translate(-478.805 -79.683)" fill="#2b2b2b"/>
        <path id="Path_955" data-name="Path 955" d="M512.23,162.93c0,.849,1.471,3.987,2.706,3.987" transform="translate(-474.32 -125.64)" fill="none" stroke="#000" stroke-linecap="round" stroke-linejoin="round" stroke-width="2"/>
        <ellipse id="Ellipse_36" data-name="Ellipse 36" cx="0.75" cy="1.362" rx="0.75" ry="1.362" transform="translate(41.391 35.15)"/>
        <path id="Path_956" data-name="Path 956" d="M532.994,192.018a6.114,6.114,0,0,1-3.334-2.518" transform="translate(-496.643 -146.129)" fill="none" stroke="#000" stroke-linecap="round" stroke-linejoin="round" stroke-width="2"/>
        <path id="Path_957" data-name="Path 957" d="M527.641,141.86a35.025,35.025,0,0,1-8.946.719,8.7,8.7,0,0,1-.545,2.314" transform="translate(-488.702 -109.393)" fill="none" stroke="#000" stroke-linecap="round" stroke-linejoin="round" stroke-width="2"/>
        <path id="Path_958" data-name="Path 958" d="M495.24,99.125a9.151,9.151,0,0,1,3.219-.769c4.672-.249,8.87,3.108,10.85,8.1a19.7,19.7,0,0,1-2.281.984" transform="translate(-464.942 -75.835)" fill="none" stroke="#000" stroke-linecap="round" stroke-linejoin="round" stroke-width="2"/>
        <path id="Path_959" data-name="Path 959" d="M570.846,127.08a17.534,17.534,0,0,1-.69-4.012,15.448,15.448,0,0,1,4.139-11.8" transform="translate(-547.83 -85.804)" fill="none" stroke="#000" stroke-linecap="round" stroke-linejoin="round" stroke-width="2"/>
        <ellipse id="Ellipse_37" data-name="Ellipse 37" cx="3.104" cy="3.09" rx="3.104" ry="3.09" transform="translate(22.234 36.841)" fill="#fff"/>
        <path id="Path_960" data-name="Path 960" d="M568.75,157.71a3.111,3.111,0,0,0-3.8-.064,3.085,3.085,0,0,0,2.287,5.525" transform="translate(-540.755 -121.091)" fill="none" stroke="#000" stroke-linecap="round" stroke-linejoin="round" stroke-width="2"/>
        <path id="Path_961" data-name="Path 961" d="M351.8,254.94l6.567.185,6.183-13.492-6.564-.183Z" transform="translate(-285.113 -186.19)" fill="#3b3744"/>
        <path id="Path_962" data-name="Path 962" d="M586.245,879.65,580.06,887.1l-5.1,1,10.307,14.854h9.714l-5.992-3.408.892-8.242,3.341-2.968" transform="translate(-570.343 -678.325)" fill="#fff"/>
        <path id="Path_963" data-name="Path 963" d="M569.96,919.556l5.3,7.642h9.714l-5.992-3.408.892-8.242,3.341-2.969" transform="translate(-558.9 -703.719)" fill="none" stroke="#000" stroke-linecap="round" stroke-linejoin="round" stroke-width="2"/>
        <path id="Path_964" data-name="Path 964" d="M619.245,874.65,613.06,882.1l-5.1,1,1.329,1.913" transform="translate(-602.289 -674.47)" fill="none" stroke="#000" stroke-linecap="round" stroke-linejoin="round" stroke-width="2"/>
        <path id="Path_965" data-name="Path 965" d="M434.9,915.74l1.081,8.15-1.826,6.889h23.146l-12.131-9.26-.037-5.779" transform="translate(-398.32 -706.155)" fill="#fff"/>
        <path id="Path_966" data-name="Path 966" d="M474.826,918.144l-2.129-1.625-.037-5.779" transform="translate(-424.559 -702.3)" fill="none" stroke="#000" stroke-linecap="round" stroke-linejoin="round" stroke-width="2"/>
        <path id="Path_967" data-name="Path 967" d="M430.434,928.15l.552,4.165L429.16,939.2h23.146l-5.562-4.248" transform="translate(-392.096 -715.725)" fill="none" stroke="#000" stroke-linecap="round" stroke-linejoin="round" stroke-width="2"/>
        <path id="Path_968" data-name="Path 968" d="M378.761,260.4c-.039-1.433-1.129-5.493,0-5.882s6.035-2.2,5.369-.687-.977,1.817-1.793,2.321" transform="translate(-311.036 -195.28)" fill="#fff"/>
        <path id="Path_969" data-name="Path 969" d="M374.761,256.4c-.039-1.433-1.129-5.493,0-5.882s6.035-2.2,5.369-.687-.977,1.817-1.793,2.321" transform="translate(-306.061 -192.195)" fill="none" stroke="#000" stroke-linecap="round" stroke-linejoin="round" stroke-width="2"/>
        <path id="Path_970" data-name="Path 970" d="M360.11,276.247c2.529-1.144,4.741-4.673,0-3.2" transform="translate(-285.245 -210.28)" fill="#fff"/>
        <path id="Path_971" data-name="Path 971" d="M357.011,265.1c1.609-1.43,2.159-3.337-1.545-2.19" transform="translate(-279.467 -202.464)" fill="#fff"/>
        <path id="Path_972" data-name="Path 972" d="M356.11,272.247c2.529-1.144,4.741-4.673,0-3.2" transform="translate(-280.271 -207.196)" fill="none" stroke="#000" stroke-linecap="round" stroke-linejoin="round" stroke-width="2"/>
        <path id="Path_973" data-name="Path 973" d="M353.011,261.1c1.609-1.43,2.159-3.337-1.545-2.19" transform="translate(-274.493 -199.38)" fill="none" stroke="#000" stroke-linecap="round" stroke-linejoin="round" stroke-width="2"/>
        <path id="Path_974" data-name="Path 974" d="M230.015,82.69h35a2.31,2.31,0,0,1,2.315,2.3V98.427a2.31,2.31,0,0,1-2.315,2.3h-9.737l-7.764,10.18-7.767-10.18h-9.733a2.31,2.31,0,0,1-2.315-2.3V84.995a2.31,2.31,0,0,1,2.315-2.3Z" transform="translate(-158.102 -63.765)" fill="none" stroke="#1b1c1e" stroke-width="2"/>
        <ellipse id="Ellipse_38" data-name="Ellipse 38" cx="3.743" cy="3.726" rx="3.743" ry="3.726" transform="translate(96.919 24.109)" fill="#1f1f1f"/>
        <line id="Line_52" data-name="Line 52" x1="18.29" transform="translate(73.678 25.393)" fill="none" stroke="#000" stroke-linecap="round" stroke-miterlimit="10" stroke-width="2"/>
        <line id="Line_53" data-name="Line 53" x1="9.447" transform="translate(82.713 29.7)" fill="none" stroke="#000" stroke-linecap="round" stroke-miterlimit="10" stroke-width="2"/>
      </g>
    </g>
    <g id="Group_3" data-name="Group 3" transform="translate(0 137.196)">
      <path id="Path_1109" data-name="Path 1109" d="M183.07,256v18.767h8.383l4.107,7.065,4.107-7.067h8.383V256Z" transform="translate(-183.07 -256)" fill="none" stroke="#1b1c1e" stroke-width="2"/>
      <line id="Line_58" data-name="Line 58" x2="11.313" transform="translate(7.307 9.737)" fill="none" stroke="#1b1c1e" stroke-linecap="round" stroke-width="2" stroke-dasharray="0 6"/>
      <rect id="Rectangle_77" data-name="Rectangle 77" width="82" height="25" transform="translate(87.942 69.512)" fill="#1b1c1e"/>
      <text id="_1_0_1_0_1_0_1_0" data-name=" 1 0 1 0 1 0 1 0" transform="translate(100.942 84.512)" fill="#fff" font-size="8" font-family="Gilroy-Light, Gilroy" font-weight="300"><tspan x="0" y="0" xml:space="preserve"> 1 0 1 0 1 0 1 0</tspan></text>
      <path id="Path_1110" data-name="Path 1110" d="M0,0V52.576H78.288" transform="translate(12.801 31.241)" fill="none" stroke="#1f1f1f" stroke-width="2"/>
    </g>
    <g id="Group_4" data-name="Group 4" transform="translate(179.163 20.878)">
      <g id="Rectangle_78" data-name="Rectangle 78" transform="translate(42.779 -0.17)" fill="none" stroke="#2e2e2e" stroke-width="2">
        <rect width="28" height="19" stroke="none"/>
        <rect x="1" y="1" width="26" height="17" fill="none"/>
      </g>
      <line id="Line_59" data-name="Line 59" x2="13.332" y2="8.51" transform="translate(43.591 0.893)" fill="none" stroke="#2e2e2e" stroke-width="2"/>
      <line id="Line_60" data-name="Line 60" y1="8.51" x2="12.764" transform="translate(56.922 0.893)" fill="none" stroke="#2e2e2e" stroke-linecap="round" stroke-width="2"/>
      <path id="Path_1111" data-name="Path 1111" d="M2.878,0A2.878,2.878,0,1,1,0,2.878,2.878,2.878,0,0,1,2.878,0Z" transform="translate(0 33.004)"/>
      <line id="Line_61" data-name="Line 61" x2="40.295" transform="translate(2.878 8.252)" fill="none" stroke="#000" stroke-width="2"/>
      <line id="Line_62" data-name="Line 62" y2="26.096" transform="translate(2.878 8.252)" fill="none" stroke="#000" stroke-linecap="round" stroke-width="2"/>
    </g>
  </g>
</svg>
